<svg width="60" height="60" viewBox="0 0 60 60" fill="none" xmlns="http://www.w3.org/2000/svg">
<rect width="60" height="60" fill="#2F2F2F"/>
<path d="M45 26.6667C45 38.3334 30 48.3334 30 48.3334C30 48.3334 15 38.3334 15 26.6667C15 22.6885 16.5804 18.8732 19.3934 16.0601C22.2064 13.2471 26.0218 11.6667 30 11.6667C33.9782 11.6667 37.7936 13.2471 40.6066 16.0601C43.4196 18.8732 45 22.6885 45 26.6667Z" stroke="#CCFF00" stroke-width="2" stroke-linecap="round" stroke-linejoin="round"/>
<path d="M30 31.6667C32.7614 31.6667 35 29.4282 35 26.6667C35 23.9053 32.7614 21.6667 30 21.6667C27.2386 21.6667 25 23.9053 25 26.6667C25 29.4282 27.2386 31.6667 30 31.6667Z" stroke="#CCFF00" stroke-width="2" stroke-linecap="round" stroke-linejoin="round"/>
</svg>
