<svg width="70" height="70" viewBox="0 0 70 70" fill="none" xmlns="http://www.w3.org/2000/svg">
<circle cx="35" cy="35" r="35" fill="#1A1A1A"/>
<g clip-path="url(#clip0_34_29)">
<path d="M52.3432 29.9812C52.0862 29.2161 51.4239 28.6583 50.6266 28.5363L41.3466 27.1183L37.1784 18.2387C36.8229 17.4818 36.0633 17 35.2287 17C34.3937 17 33.6346 17.4818 33.2791 18.2387L29.1103 27.1188L19.8304 28.5369C19.033 28.6588 18.3708 29.2161 18.1143 29.9817C17.8578 30.7473 18.0514 31.5906 18.6152 32.1692L25.3921 39.1184L23.787 48.9495C23.6547 49.7633 23.9998 50.5814 24.673 51.0572C25.3456 51.533 26.2337 51.5811 26.9573 51.1819L35.2293 46.6073L43.5013 51.1819C43.8278 51.3623 44.1871 51.4509 44.5448 51.4509C44.9801 51.4509 45.4154 51.3186 45.7856 51.0572C46.4588 50.582 46.8033 49.7638 46.671 48.9495L45.0659 39.1184L51.8433 32.1692C52.4061 31.5906 52.5997 30.7473 52.3432 29.9812Z" fill="#CCFF00"/>
</g>
<defs>
<clipPath id="clip0_34_29">
<rect width="35" height="35" fill="white" transform="translate(18 17)"/>
</clipPath>
</defs>
</svg>
