<svg width="70" height="70" viewBox="0 0 70 70" fill="none" xmlns="http://www.w3.org/2000/svg">
<g clip-path="url(#clip0_14_163)">
<path d="M25.6958 17.8238C22.2036 17.8117 19.3662 14.9666 19.3662 11.4716C19.3662 9.68141 20.1115 8.06284 21.3069 6.90697L19.8367 5.52466C19.5708 5.29595 19.2427 5.18298 18.9154 5.18298C18.552 5.18298 18.1895 5.32237 17.9145 5.59788L0.412652 23.1274C-0.0877882 23.6291 -0.139367 24.4239 0.292134 24.9862L6.73068 32.3391C6.86026 32.5079 6.94781 32.7029 6.9931 32.911C7.25553 34.1149 7.70439 35.3936 8.30119 36.7215L8.90529 36.1174C9.96102 35.061 11.3652 34.479 12.859 34.479C14.352 34.479 15.7562 35.0607 16.8122 36.1167C16.8187 36.1232 16.8255 36.13 16.8318 36.1366L16.8499 36.1549C17.5773 36.8858 18.0712 37.7846 18.3103 38.7615C19.1448 38.284 20.0909 38.0246 21.0784 38.0246C22.5692 38.0246 23.9706 38.6043 25.0258 39.6568L25.0495 39.6802C25.0525 39.6832 25.0555 39.6862 25.0585 39.6892C26.1143 40.7449 26.6957 42.1489 26.6957 43.6422C26.6957 44.3353 26.5651 45.0071 26.3253 45.6359C27.5315 45.7977 28.6477 46.3409 29.524 47.2164L29.5514 47.2439C30.3276 48.0203 30.822 48.9711 31.0454 49.971L43.7366 62.6622C44.4159 63.3417 45.3257 63.701 46.2328 63.701C46.9539 63.701 47.6732 63.4738 48.2723 62.9993C49.8727 61.7325 49.9721 59.3752 48.5702 57.973L36.2891 45.692C35.6558 45.0589 35.6558 44.0326 36.2891 43.3999C36.6102 43.0788 37.0311 42.918 37.452 42.918C37.8732 42.918 38.2942 43.0788 38.6152 43.3999L54.235 59.0197C54.9146 59.699 55.8244 60.0586 56.7312 60.0586C57.4525 60.0586 58.1716 59.8311 58.7709 59.3568C60.3714 58.09 60.4705 55.7327 59.0686 54.3306L43.3753 38.637C42.7335 37.9954 42.7335 36.955 43.3753 36.3137C43.6923 35.9967 44.1075 35.8382 44.5229 35.8382C44.938 35.8382 45.3534 35.9967 45.6704 36.3137L57.8777 48.521C58.5573 49.2006 59.4674 49.5599 60.3742 49.5599C61.0953 49.5599 61.8146 49.3327 62.4137 48.8582C64.0141 47.5913 64.1135 45.2341 62.7113 43.8319L36.8452 17.9655L25.6958 17.8238Z" fill="#CCFF00"/>
<path d="M34.4053 66.0735C35.3906 66.0735 36.3757 65.647 37.051 64.7938C38.1218 63.4409 37.9341 61.4777 36.7141 60.2579L35.6372 59.1813C35.5436 60.4743 35.0087 61.7411 34.0224 62.7276L32.6217 64.1278C32.3568 64.393 32.0697 64.6277 31.765 64.8315L32.0249 65.0917C32.6796 65.7461 33.5423 66.0735 34.4053 66.0735Z" fill="#CCFF00"/>
<path d="M52.0856 4.34166C51.8106 4.0659 51.4483 3.92651 51.0847 3.92651C50.7574 3.92651 50.4293 4.03974 50.1633 4.26844L48.9946 4.93494C48.9926 4.9367 48.9903 4.93771 48.9881 4.93821L25.719 8.13836C23.8858 8.13836 22.3857 9.63843 22.3857 11.4716C22.3857 13.3048 23.8858 14.8046 25.719 14.8046L38.1289 14.9621C38.1289 14.9621 57.361 34.2035 61.6357 38.4783C64.9959 34.1967 67.9935 29.7197 68.8439 25.8173C68.8895 25.6095 68.9768 25.4142 69.1063 25.2457L69.7079 23.73C70.1397 23.1679 70.0881 22.3731 69.5877 21.8709L52.0856 4.34166Z" fill="#CCFF00"/>
<path d="M9.05725 43.9255C9.55946 44.4275 10.2171 44.6786 10.8753 44.6786C11.5333 44.6786 12.1912 44.4275 12.6934 43.9255L14.7043 41.9144C15.7087 40.9105 15.7087 39.2824 14.7043 38.2785L14.6776 38.2516C14.1754 37.7494 13.5174 37.4983 12.8595 37.4983C12.2015 37.4983 11.5434 37.7494 11.0414 38.2516L9.03008 40.2629C8.02643 41.2666 8.02643 42.8947 9.03008 43.8986L9.05725 43.9255Z" fill="#CCFF00"/>
<path d="M16.3467 50.972C17.0047 50.972 17.6626 50.7209 18.1651 50.2187L22.9239 45.4601C23.9278 44.4564 23.9278 42.8283 22.9239 41.8242L22.897 41.7975C22.395 41.2953 21.7371 41.0442 21.0789 41.0442C20.4207 41.0442 19.7627 41.2953 19.26 41.7975L14.5017 46.5558C13.4976 47.56 13.4976 49.1876 14.5017 50.1918L14.5284 50.2187C15.0306 50.7209 15.6885 50.972 16.3467 50.972Z" fill="#CCFF00"/>
<path d="M20.7008 56.095C21.2027 56.597 21.8609 56.8478 22.5188 56.8478C23.1768 56.8478 23.835 56.597 24.3367 56.095L27.4166 53.0152C28.4202 52.0113 28.4202 50.3829 27.4166 49.379L27.3894 49.3518C26.8872 48.8498 26.2293 48.599 25.5711 48.599C24.9134 48.599 24.2554 48.8498 23.753 49.3518L20.6736 52.4317C19.6694 53.4358 19.6694 55.064 20.6736 56.0679L20.7008 56.095Z" fill="#CCFF00"/>
<path d="M30.4864 61.993L31.8873 60.5923C32.8909 59.5884 32.8909 57.9605 31.8873 56.9564L31.8606 56.9292C31.3587 56.4272 30.7007 56.1761 30.0423 56.1761C29.3843 56.1761 28.7264 56.4272 28.2239 56.9292L26.8232 58.3299C25.8188 59.3338 25.8188 60.9622 26.8232 61.9663L26.8504 61.993C27.3524 62.4949 28.0103 62.746 28.6683 62.746C29.3262 62.746 29.9844 62.4949 30.4864 61.993Z" fill="#CCFF00"/>
</g>
<defs>
<clipPath id="clip0_14_163">
<rect width="70" height="70" fill="white"/>
</clipPath>
</defs>
</svg>
