<svg width="70" height="70" viewBox="0 0 70 70" fill="none" xmlns="http://www.w3.org/2000/svg">
<path d="M55.4166 23.3333H42.945L52.115 7.29163C52.3712 6.84782 52.506 6.34433 52.5057 5.83186C52.5055 5.31939 52.3702 4.81603 52.1135 4.37247C51.8569 3.92891 51.4879 3.56081 51.0437 3.30523C50.5995 3.04965 50.0958 2.91562 49.5833 2.91663H29.1666C28.6246 2.91638 28.0933 3.06716 27.6322 3.35206C27.1711 3.63696 26.7985 4.0447 26.5562 4.52955L11.9729 33.6962C11.7506 34.141 11.6458 34.6352 11.6683 35.1319C11.6908 35.6286 11.8399 36.1113 12.1014 36.5342C12.363 36.9571 12.7283 37.3061 13.1627 37.548C13.5971 37.79 14.0861 37.9169 14.5833 37.9166H28.1633L20.5391 63.3295C20.3457 63.972 20.3796 64.6615 20.6353 65.2818C20.8909 65.9021 21.3526 66.4154 21.9425 66.735C22.5324 67.0546 23.2145 67.1611 23.8737 67.0364C24.533 66.9118 25.1291 66.5637 25.5616 66.0508L57.645 28.1341C58.0044 27.7094 58.2349 27.1907 58.3091 26.6393C58.3834 26.0879 58.2984 25.5267 58.0641 25.022C57.8299 24.5173 57.4562 24.0902 56.9871 23.7909C56.518 23.4917 55.973 23.3329 55.4166 23.3333ZM30.1496 51.5929L34.8775 35.8429C35.0091 35.407 35.0368 34.9464 34.9584 34.4979C34.88 34.0495 34.6978 33.6256 34.4262 33.2601C34.1546 32.8947 33.8013 32.598 33.3944 32.3936C32.9876 32.1893 32.5386 32.083 32.0833 32.0833H19.3025L30.9691 8.74996H44.555L35.385 24.7916C35.1287 25.2354 34.994 25.7389 34.9942 26.2514C34.9945 26.7639 35.1297 27.2672 35.3864 27.7108C35.6431 28.1544 36.0121 28.5225 36.4563 28.778C36.9005 29.0336 37.4042 29.1676 37.9166 29.1666H49.1283L30.1496 51.5929Z" fill="#CCFF00"/>
</svg>
